<?xml version="1.0" encoding="utf-8"?>
<!-- Generator: Adobe Illustrator 23.0.6, SVG Export Plug-In . SVG Version: 6.00 Build 0)  -->
<svg version="1.1" id="Mode_Isolation" xmlns="http://www.w3.org/2000/svg" xmlns:xlink="http://www.w3.org/1999/xlink" x="0px"
	 y="0px" viewBox="0 0 112 45" enable-background="new 0 0 112 45" xml:space="preserve">
<path fill="#52B5E5" d="M34.8,11.8c0,0,1.1,1,2.5,1c0.8,0,1.4-0.4,1.4-1.2c0-1.8-4.7-1.5-4.7-4.5c0-1.6,1.4-2.9,3.3-2.9
	c1.9,0,3,1.1,3,1.1l-0.8,1.5c0,0-0.9-0.9-2.2-0.9c-0.8,0-1.5,0.5-1.5,1.2c0,1.8,4.6,1.3,4.6,4.5c0,1.6-1.2,2.9-3.3,2.9
	c-2.2,0-3.4-1.4-3.4-1.4L34.8,11.8z"/>
<path fill="#52B5E5" d="M47.8,4.3c2.4,0,3.6,1.4,3.6,1.4L50.6,7c0,0-1.1-1-2.7-1c-2.1,0-3.3,1.6-3.3,3.4c0,1.9,1.3,3.5,3.3,3.5
	c1.7,0,2.9-1.3,2.9-1.3l0.9,1.3c0,0-1.4,1.6-3.9,1.6c-3,0-5.1-2.2-5.1-5.1S44.9,4.3,47.8,4.3"/>
<rect x="54.5" y="4.4" fill="#52B5E5" width="1.8" height="9.9"/>
<polygon fill="#52B5E5" points="59.9,4.4 65.8,4.4 65.8,6 61.7,6 61.7,8.6 65,8.6 65,10.1 61.7,10.1 61.7,12.8 66,12.8 66,14.3 
	59.9,14.3 "/>
<path fill="#52B5E5" d="M69,4.4h1.8l3.7,5.7c0.4,0.6,0.8,1.5,0.8,1.5l0,0c0,0-0.1-0.9-0.1-1.5V4.4H77v9.9h-1.8l-3.7-5.7
	c-0.4-0.6-0.8-1.5-0.8-1.5l0,0c0,0,0.1,0.9,0.1,1.5v5.7H69V4.4z"/>
<path fill="#52B5E5" d="M85.1,4.3c2.4,0,3.6,1.4,3.6,1.4L87.9,7c0,0-1.1-1-2.7-1c-2.1,0-3.3,1.6-3.3,3.4c0,1.9,1.3,3.5,3.3,3.5
	c1.7,0,2.9-1.3,2.9-1.3l0.9,1.3c0,0-1.4,1.6-3.9,1.6c-3,0-5.1-2.2-5.1-5.1C80,6.5,82.2,4.3,85.1,4.3"/>
<polygon fill="#52B5E5" points="91.7,4.4 97.7,4.4 97.7,6 93.5,6 93.5,8.6 96.9,8.6 96.9,10.1 93.5,10.1 93.5,12.8 97.9,12.8 
	97.9,14.3 91.7,14.3 "/>
<path fill="#52B5E5" d="M101.1,11.8c0,0,1.1,1,2.5,1c0.8,0,1.4-0.4,1.4-1.2c0-1.8-4.7-1.5-4.7-4.5c0-1.6,1.4-2.9,3.3-2.9
	s3,1.1,3,1.1l-0.8,1.5c0,0-0.9-0.9-2.2-0.9c-0.8,0-1.5,0.5-1.5,1.2c0,1.8,4.6,1.3,4.6,4.5c0,1.6-1.2,2.9-3.3,2.9
	c-2.2,0-3.4-1.4-3.4-1.4L101.1,11.8z"/>
<path fill="#1D2769" d="M12.8,14.1h1.5v-3.3c0-0.4-0.3-0.8-0.8-0.8c-0.4,0-0.8,0.3-0.8,0.8v3.3H12.8z"/>
<path fill="#1D2769" d="M9.6,14.1h1.5v-3.3c0-0.4-0.3-0.8-0.8-0.8c-0.4,0-0.8,0.3-0.8,0.8v3.3H9.6z"/>
<path fill="#1D2769" d="M16,14.1h1.5v-3.3c0-0.4-0.3-0.8-0.8-0.8c-0.4,0-0.8,0.3-0.8,0.8L16,14.1L16,14.1z"/>
<path fill="#1D2769" d="M13.9,1.9c1,0.2,1.4,1.1,1.4,1.7v1.3h0.9v0.7c2.4,1.1,4.1,3.6,4.1,6.2l0,0V14h5.6v-2.3
	C25.8,4.5,20.6,0.1,13.7,0L13.9,1.9z"/>
<path fill="#1D2769" d="M13.9,1.9c1,0.2,1.4,1.1,1.4,1.7v1.3h0.9v0.7c2.4,1.1,4.1,3.6,4.1,6.2l0,0V14h5.6v-2.3
	C25.8,4.5,20.6,0.1,13.7,0L13.9,1.9z"/>
<path fill="#1D2769" d="M12.9,3.5v1.3h1.4V3.5c0-0.4-0.3-0.7-0.7-0.7C13.2,2.9,12.9,3.2,12.9,3.5"/>
<path fill="#1D2769" d="M12.9,3.5v1.3h1.4V3.5c0-0.4-0.3-0.7-0.7-0.7C13.2,2.9,12.9,3.2,12.9,3.5"/>
<path fill="#1D2769" d="M14.6,17.6c-5.7-1.5-7.9-2.7-7.9-6.3c0-2.6,1.7-4.8,4.2-5.8V4.9h0.9V3.6c0-0.6,0.4-1.5,1.4-1.7L13.4,0
	C6.5,0.1,0.6,4.8,0.9,11.3c0.3,7.2,8.2,9.2,12.5,10.1c3.4,0.7,11.4,2.6,13.4,8.3C26.8,29.7,27.6,20.3,14.6,17.6"/>
<path fill="#1D2769" d="M14.6,17.6c-5.7-1.5-7.9-2.7-7.9-6.3c0-2.6,1.7-4.8,4.2-5.8V4.9h0.9V3.6c0-0.6,0.4-1.5,1.4-1.7L13.4,0
	C6.5,0.1,0.6,4.8,0.9,11.3c0.3,7.2,8.2,9.2,12.5,10.1c3.4,0.7,11.4,2.6,13.4,8.3C26.8,29.7,27.6,20.3,14.6,17.6"/>
<path fill="#1D2769" d="M12.7,27.6c5.8,1.8,7.3,3.9,7.3,6.9c0,4.6-3.6,6.5-8.1,6.5c-4.3,0-8-2-10.5-4.6l-0.9,1.9
	C2.2,41.8,7.3,45,13,45l0,0l0,0c7.3,0.1,13.5-3.4,13.5-10.2c0-7.4-8.1-10.3-12.5-11.3c-3.5-0.8-12.4-3.1-14-8.1
	C0.1,15.4-1.7,24,12.7,27.6"/>
<path fill="#1D2769" d="M12.7,27.6c5.8,1.8,7.3,3.9,7.3,6.9c0,4.6-3.6,6.5-8.1,6.5c-4.3,0-8-2-10.5-4.6l-0.9,1.9
	C2.2,41.8,7.3,45,13,45l0,0l0,0c7.3,0.1,13.5-3.4,13.5-10.2c0-7.4-8.1-10.3-12.5-11.3c-3.5-0.8-12.4-3.1-14-8.1
	C0.1,15.4-1.7,24,12.7,27.6"/>
<path fill="#1D2769" d="M35.2,25.8c0,0,1,0.9,2.3,0.9c0.7,0,1.3-0.3,1.3-1.1c0-1.6-4.3-1.3-4.3-4c0-1.5,1.3-2.5,3.1-2.5
	s2.7,0.9,2.7,0.9l-0.7,1.3c0,0-0.9-0.8-2-0.8c-0.8,0-1.4,0.4-1.4,1c0,1.6,4.3,1.2,4.3,4c0,1.4-1.1,2.6-3,2.6c-2,0-3.1-1.2-3.1-1.2
	L35.2,25.8z"/>
<path fill="#1D2769" d="M47.5,26.8c1.7,0,3-1.3,3-3.1c0-1.7-1.3-3-3-3s-3,1.3-3,3S45.8,26.8,47.5,26.8 M47.5,19.2
	c2.7,0,4.7,2,4.7,4.5c0,2.6-2,4.6-4.7,4.6s-4.7-2-4.7-4.6S44.8,19.2,47.5,19.2"/>
<path fill="#1D2769" d="M58,23.4c0.9,0,1.4-0.5,1.4-1.4c0-0.8-0.4-1.4-1.7-1.4h-1.3v2.7L58,23.4L58,23.4z M54.8,19.3h2.9
	c1,0,1.4,0.1,1.8,0.2c0.9,0.4,1.5,1.2,1.5,2.4c0,1-0.6,2-1.5,2.4l0,0c0,0,0.1,0.1,0.3,0.4l1.9,3.3h-1.8l-1.8-3.3h-1.6V28h-1.7
	C54.8,28,54.8,19.3,54.8,19.3z"/>
<path fill="#1D2769" d="M67.5,26.7c0.8,0,1.3-0.5,1.3-1.3c0-0.7-0.5-1.3-1.3-1.3h-1.8v2.5L67.5,26.7L67.5,26.7z M67.3,22.9
	c0.7,0,1.1-0.5,1.1-1.1s-0.4-1.1-1.2-1.1h-1.6v2.2H67.3z M64.1,19.3h3.3c1.6,0,2.8,0.8,2.8,2.3c0,0.8-0.4,1.5-1.1,1.9l0,0
	c1,0.3,1.5,1.2,1.5,2.1c0,1.7-1.5,2.5-3.1,2.5h-3.3v-8.8H64.1z"/>
<path fill="#1D2769" d="M77.4,26.8c1.7,0,3-1.3,3-3.1c0-1.7-1.3-3-3-3s-3,1.3-3,3S75.7,26.8,77.4,26.8 M77.4,19.2
	c2.7,0,4.7,2,4.7,4.5c0,2.6-2,4.6-4.7,4.6s-4.7-2-4.7-4.6C72.7,21.1,74.7,19.2,77.4,19.2"/>
<path fill="#1D2769" d="M84.9,19.3h1.7l3.4,5c0.3,0.5,0.8,1.4,0.8,1.4l0,0c0,0-0.1-0.8-0.1-1.4v-5h1.6V28h-1.6l-3.5-5
	c-0.3-0.5-0.8-1.4-0.8-1.4l0,0c0,0,0.1,0.8,0.1,1.4v5h-1.7L84.9,19.3L84.9,19.3z"/>
<path fill="#1D2769" d="M95.6,19.3h1.7l3.4,5c0.3,0.5,0.8,1.4,0.8,1.4l0,0c0,0-0.1-0.8-0.1-1.4v-5h1.6V28h-1.6L98,23
	c-0.3-0.5-0.8-1.4-0.8-1.4l0,0c0,0,0.1,0.8,0.1,1.4v5h-1.7V19.3z"/>
<polygon fill="#1D2769" points="106.4,19.3 106.4,28.1 112,28.1 112,26.7 108,26.7 108,24.4 111.1,24.4 111.1,23 108,23 108,20.7 
	111.8,20.7 111.8,19.3 "/>
<path fill="#1D2769" d="M34.5,31.9h1.7v5.7c0,1.2,0.8,1.9,2,1.9s2-0.7,2-1.9V32h1.7v5.7c0,2-1.5,3.3-3.7,3.3s-3.7-1.3-3.7-3.3V31.9z
	"/>
<path fill="#1D2769" d="M44.7,32h1.7l3.4,5c0.3,0.5,0.8,1.4,0.8,1.4l0,0c0,0-0.1-0.8-0.1-1.4v-5h1.6v8.7h-1.6l-3.4-5
	c-0.3-0.5-0.8-1.4-0.8-1.4l0,0c0,0,0.1,0.8,0.1,1.4v5h-1.7V32z"/>
<rect x="55" y="32" fill="#1D2769" width="1.7" height="8.7"/>
<path fill="#1D2769" d="M58.5,32h1.8l2,5.7c0.2,0.5,0.3,1.3,0.3,1.3l0,0c0,0,0.2-0.8,0.3-1.3l2-5.7h1.8l-3.3,8.7h-1.6L58.5,32z"/>
<polygon fill="#1D2769" points="68.6,32 74,32 74,33.4 70.2,33.4 70.2,35.7 73.3,35.7 73.3,37 70.2,37 70.2,39.4 74.2,39.4 
	74.2,40.7 68.6,40.7 "/>
<path fill="#1D2769" d="M79.7,36.1c0.9,0,1.4-0.5,1.4-1.4c0-0.8-0.4-1.4-1.7-1.4h-1.3V36h1.6V36.1z M76.6,32h2.9
	c1,0,1.4,0.1,1.8,0.2c0.9,0.4,1.5,1.2,1.5,2.4c0,1-0.6,2-1.5,2.4l0,0c0,0,0.1,0.1,0.3,0.4l1.9,3.3h-1.8l-1.8-3.3h-1.6v3.3h-1.7
	C76.6,40.7,76.6,32,76.6,32z"/>
<path fill="#1D2769" d="M85.9,38.5c0,0,1,0.9,2.3,0.9c0.7,0,1.3-0.3,1.3-1.1c0-1.6-4.3-1.3-4.3-4c0-1.5,1.3-2.5,3.1-2.5
	c1.8,0,2.7,0.9,2.7,0.9L90.3,34c0,0-0.9-0.8-2-0.8c-0.8,0-1.4,0.4-1.4,1c0,1.6,4.3,1.2,4.3,4c0,1.4-1.1,2.6-3,2.6
	c-2,0-3.1-1.2-3.1-1.2L85.9,38.5z"/>
<rect x="93.4" y="32" fill="#1D2769" width="1.7" height="8.7"/>
<polygon fill="#1D2769" points="99.9,33.4 96.9,33.4 96.9,32 104.5,32 104.5,33.4 101.5,33.4 101.5,40.7 99.9,40.7 "/>
<path fill="#1D2769" d="M106.4,32v8.7h5.7v-1.4h-4V37h3.1v-1.4H108v-2.3h3.8V32H106.4z M109.5,29.7l-1,1.7h1.3l1.3-1.7H109.5z"/>
</svg>
